<?xml version="1.0" encoding="UTF-8"?>
<svg xmlns="http://www.w3.org/2000/svg" viewBox="0 0 400 170" width="400" height="170" role="img" aria-labelledby="tsTitle">
  <title id="tsTitle">&#x5408;&#x6210;&#x53f0;&#x793a;&#x610f;</title>
  <defs>
    <linearGradient id="ts_bg" x1="0%" y1="0%" x2="100%" y2="100%">
      <stop offset="0%" stop-color="#1e293b"/>
      <stop offset="100%" stop-color="#0f172a"/>
    </linearGradient>
    <marker id="ts_arrow" markerWidth="8" markerHeight="8" refX="7" refY="4" orient="auto">
      <path d="M0,0 L8,4 L0,8 z" fill="#94a3b8"/>
    </marker>
  </defs>
  <rect width="400" height="170" fill="url(#ts_bg)" rx="8"/>
  <text x="200" y="22" text-anchor="middle" fill="#94a3b8" font-size="11" font-family="Segoe UI,Microsoft YaHei,sans-serif">&#x5408;&#x6210;&#x53f0; &#xb7; &#x7d20;&#x6750;&#x2192;&#x5361;&#x69fd;</text>
  <rect x="14" y="38" width="118" height="118" fill="#0b1220" stroke="#334155" stroke-width="1.2" rx="6"/>
  <text x="73" y="56" text-anchor="middle" fill="#d4a853" font-size="9" font-weight="600" font-family="Segoe UI,Microsoft YaHei,sans-serif">&#x5de6;&#x4fa7;&#x7d20;&#x6750;</text>
  <rect x="24" y="66" width="46" height="20" rx="3" fill="#1e293b" stroke="#475569"/>
  <rect x="76" y="66" width="46" height="20" rx="3" fill="#1e293b" stroke="#475569"/>
  <rect x="24" y="92" width="46" height="20" rx="3" fill="#1e293b" stroke="#475569"/>
  <rect x="76" y="92" width="46" height="20" rx="3" fill="#312e81" stroke="#a78bfa"/>
  <rect x="24" y="118" width="98" height="28" rx="3" fill="#422006" stroke="#d4a853"/>
  <text x="73" y="135" text-anchor="middle" fill="#fcd34d" font-size="7" font-family="Segoe UI,Microsoft YaHei,sans-serif">&#x62d6;&#x5230;&#x53f3;&#x4fa7;</text>
  <line x1="138" y1="96" x2="168" y2="96" stroke="#64748b" stroke-width="1.5" marker-end="url(#ts_arrow)"/>
  <rect x="176" y="38" width="210" height="118" fill="#0f172a" stroke="#334155" stroke-width="1.2" rx="6"/>
  <text x="281" y="56" text-anchor="middle" fill="#cbd5e1" font-size="9" font-family="Segoe UI,Microsoft YaHei,sans-serif">&#x914d;&#x65b9;&#x5361;&#x69fd;</text>
  <rect x="188" y="66" width="186" height="26" rx="4" fill="#450a0a" stroke="#ef4444" stroke-width="1.2"/>
  <text x="281" y="83" text-anchor="middle" fill="#fca5a5" font-size="8" font-family="Segoe UI,Microsoft YaHei,sans-serif">&#x516c;&#x5f00;&#x62a5;&#x9053;&#xb7;&#x7ea2;&#x69fd;&#x5fc5;&#x586b;</text>
  <rect x="188" y="98" width="186" height="22" rx="4" fill="none" stroke="#d4a853" stroke-width="1.2" stroke-dasharray="4 3"/>
  <text x="281" y="113" text-anchor="middle" fill="#fcd34d" font-size="7.5" font-family="Segoe UI,Microsoft YaHei,sans-serif">&#x5de5;&#x5177;&#xb7;&#x91d1;&#x8272;&#x865a;&#x7ebf;&#x69fd;</text>
  <rect x="188" y="126" width="186" height="24" rx="4" fill="#172554" stroke="#3b82f6" stroke-width="1.2"/>
  <text x="281" y="142" text-anchor="middle" fill="#93c5fd" font-size="7.5" font-family="Segoe UI,Microsoft YaHei,sans-serif">&#x5185;&#x5ba1;&#x5b9a;&#x8c03;&#xb7;&#x84dd;&#x69fd;&#x4e0d;&#x4e0a;&#x7248;</text>
</svg>
