<?xml version="1.0" encoding="UTF-8"?>
<svg xmlns="http://www.w3.org/2000/svg" viewBox="0 0 1200 700" role="img" aria-label="stylized world map background">
  <defs>
    <linearGradient id="seaGlow" x1="0" y1="0" x2="1" y2="1">
      <stop offset="0" stop-color="#0b1a2c"/>
      <stop offset="0.55" stop-color="#07121f"/>
      <stop offset="1" stop-color="#0c1422"/>
    </linearGradient>
    <filter id="softGlow" x="-20%" y="-20%" width="140%" height="140%">
      <feGaussianBlur stdDeviation="8" result="blur"/>
      <feMerge>
        <feMergeNode in="blur"/>
        <feMergeNode in="SourceGraphic"/>
      </feMerge>
    </filter>
    <pattern id="grid" width="80" height="80" patternUnits="userSpaceOnUse">
      <path d="M80 0H0V80" fill="none" stroke="#2a3c57" stroke-width="1" opacity="0.25"/>
    </pattern>
  </defs>

  <rect width="1200" height="700" fill="url(#seaGlow)"/>
  <rect width="1200" height="700" fill="url(#grid)" opacity="0.45"/>

  <g fill="none" stroke="#334a68" stroke-width="1" opacity="0.38">
    <path d="M0 120H1200M0 240H1200M0 360H1200M0 480H1200M0 600H1200"/>
    <path d="M120 0V700M240 0V700M360 0V700M480 0V700M600 0V700M720 0V700M840 0V700M960 0V700M1080 0V700"/>
  </g>

  <g filter="url(#softGlow)" opacity="0.9">
    <path fill="#22405f" d="M143 182 189 137 260 124 339 146 374 192 338 236 285 248 252 284 190 270 156 231 102 226 86 198Z"/>
    <path fill="#1d3554" d="M286 282 328 302 354 352 340 418 306 480 270 520 238 493 256 438 236 384 258 330Z"/>
    <path fill="#274568" d="M430 168 520 116 630 118 726 150 806 142 915 180 892 238 794 246 724 224 654 270 548 254 470 286 408 238Z"/>
    <path fill="#1f3b5b" d="M552 282 634 274 690 320 716 390 676 476 612 510 548 470 512 400 520 330Z"/>
    <path fill="#203751" d="M758 276 850 264 952 306 1018 344 1008 404 924 406 838 382 764 340Z"/>
    <path fill="#24415f" d="M916 476 1006 452 1098 484 1134 540 1080 586 982 572 908 528Z"/>
    <path fill="#263d5a" d="M352 96 406 66 478 82 458 126 384 136Z"/>
  </g>

  <g fill="#4f6f95" opacity="0.4">
    <circle cx="242" cy="190" r="5"/>
    <circle cx="581" cy="188" r="4"/>
    <circle cx="864" cy="322" r="5"/>
    <circle cx="992" cy="518" r="4"/>
  </g>

  <g fill="none" stroke="#d4a853" stroke-width="1.5" opacity="0.22">
    <path d="M188 205C314 172 432 184 560 226S826 298 1004 298"/>
    <path d="M270 468C412 396 570 380 740 414s278 90 360 126"/>
  </g>
</svg>
